<?xml version="1.0" encoding="UTF-8" standalone="no"?>
<!-- Created with Inkscape (http://www.inkscape.org/) -->

<svg
   xmlns:dc="http://purl.org/dc/elements/1.1/"
   xmlns:cc="http://creativecommons.org/ns#"
   xmlns:rdf="http://www.w3.org/1999/02/22-rdf-syntax-ns#"
   xmlns:svg="http://www.w3.org/2000/svg"
   xmlns="http://www.w3.org/2000/svg"
   xmlns:xlink="http://www.w3.org/1999/xlink"
   xmlns:sodipodi="http://sodipodi.sourceforge.net/DTD/sodipodi-0.dtd"
   xmlns:inkscape="http://www.inkscape.org/namespaces/inkscape"
   width="48"
   height="48"
   id="svg4355"
   version="1.1"
   inkscape:version="0.48+devel r12149"
   sodipodi:docname="edit-select-all.svg">
  <defs
     id="defs4357">
    <linearGradient
       id="linearGradient1069-5">
      <stop
         id="stop1071-6"
         offset="0"
         style="stop-color:#ffffff;stop-opacity:1" />
      <stop
         id="stop1073-0"
         offset="1"
         style="stop-color:#e6e6e6;stop-opacity:1" />
    </linearGradient>
    <linearGradient
       id="linearGradient918-1">
      <stop
         style="stop-color:#f6f6f6;stop-opacity:1"
         offset="0"
         id="stop920-5" />
      <stop
         style="stop-color:#e2e2e2;stop-opacity:1"
         offset="1"
         id="stop922-7" />
    </linearGradient>
    <linearGradient
       inkscape:collect="always"
       id="linearGradient2476">
      <stop
         style="stop-color:#0c5dfc;stop-opacity:1"
         offset="0"
         id="stop2478" />
      <stop
         style="stop-color:#39e3ff;stop-opacity:1"
         offset="1"
         id="stop2480" />
    </linearGradient>
    <linearGradient
       gradientTransform="translate(-117.62901,-46.89989)"
       y2="-501.70206"
       x2="486.09668"
       y1="-546.00665"
       x1="486.09668"
       gradientUnits="userSpaceOnUse"
       id="linearGradient893"
       xlink:href="#linearGradient2476"
       inkscape:collect="always" />
  </defs>
  <sodipodi:namedview
     id="base"
     pagecolor="#ffffff"
     bordercolor="#666666"
     borderopacity="1.0"
     inkscape:pageopacity="0.0"
     inkscape:pageshadow="2"
     inkscape:zoom="5.8625"
     inkscape:cx="27.372829"
     inkscape:cy="25.206213"
     inkscape:document-units="px"
     inkscape:current-layer="layer1"
     showgrid="false"
     width="0px"
     height="0px"
     fit-margin-top="0"
     fit-margin-left="0"
     fit-margin-right="0"
     fit-margin-bottom="0"
     inkscape:window-width="1366"
     inkscape:window-height="716"
     inkscape:window-x="0"
     inkscape:window-y="28"
     inkscape:window-maximized="1" />
  <metadata
     id="metadata4360">
    <rdf:RDF>
      <cc:Work
         rdf:about="">
        <dc:format>image/svg+xml</dc:format>
        <dc:type
           rdf:resource="http://purl.org/dc/dcmitype/StillImage" />
        <dc:title />
      </cc:Work>
    </rdf:RDF>
  </metadata>
  <g
     inkscape:label="Capa 1"
     inkscape:groupmode="layer"
     id="layer1"
     transform="translate(-544.57141,-716.93359)">
    <g
       transform="translate(157.14285,168.57141)"
       id="layer1-9"
       inkscape:label="Capa 1">
      <g
         transform="translate(43.343287,1.6716321)"
         id="g855">
        <rect
           style="fill:url(#linearGradient893);fill-opacity:1;stroke:none"
           id="rect2991-1-7-9"
           width="44.000008"
           height="44.000008"
           x="346.08527"
           y="-592.69055"
           ry="1.7824985"
           transform="scale(1,-1)" />
        <path
           inkscape:connector-curvature="0"
           style="fill:#000000;fill-opacity:1;stroke:none"
           d="m 346.08528,589.94055 0,0.9739 c 0,0.9875 0.78853,1.7761 1.77604,1.7761 l 40.44791,0 c 0.98751,0 1.77605,-0.7886 1.77605,-1.7761 l 0,-0.9739 c 0,0.9875 -0.78854,1.7761 -1.77605,1.7761 l -40.44791,0 C 346.87381,591.71665 346.08528,590.92805 346.08528,589.94055 Z"
           id="rect846-1" />
        <path
           inkscape:connector-curvature="0"
           style="fill:#ffffff;fill-opacity:0.5372549;stroke:none"
           d="m 348.40559,549.29225 c -0.84067,0 -1.53189,0.5861 -1.69011,1.375 0.30765,-0.2567 0.70997,-0.4011 1.14584,-0.4011 l 40.44791,0 c 0.43587,0 0.83819,0.1444 1.14584,0.4011 -0.15822,-0.7889 -0.84944,-1.375 -1.69011,-1.375 L 348.40559,549.29225 Z"
           id="path7515-7" />
        <path
           inkscape:connector-curvature="0"
           style="fill:#000000;fill-opacity:0.39215686;stroke:none"
           d="m 347.86132,548.69055 c -0.98751,0 -1.77604,0.7886 -1.77604,1.7761 l 0,39.4739 c 0,0.7272 0.44001,1.3282 1.05989,1.6042 -0.28356,-0.3055 -0.45833,-0.7172 -0.45833,-1.1744 l 0,-39.3595 c 0,-0.9608 0.75799,-1.7186 1.71875,-1.7186 l 39.35937,0 c 0.96076,0 1.71875,0.7578 1.71875,1.7186 l 0,39.3595 c 0,0.4572 -0.17477,0.8689 -0.45833,1.1744 0.61988,-0.276 1.0599,-0.877 1.0599,-1.6042 l 0,-39.4739 c 0,-0.9875 -0.78854,-1.7761 -1.77605,-1.7761 L 347.86132,548.69055 Z"
           id="rect4280-8" />
      </g>
    </g>
    <path
       style="fill:#ffffff;fill-rule:evenodd;clip-rule:evenodd"
       inkscape:connector-curvature="0"
       d="m 574.32411,750.93365 -1.047,0 0,-1.11092 1.047,0 L 574.32411,750.93365 z m -2.0915,0 -1.04758,0 0,-1.11092 1.04758,0 L 572.23261,750.93365 z m -2.09182,0 -1.04753,0 0,-1.11092 1.04753,0 L 570.14079,750.93365 z m -4.18358,0 -1.04727,0 0,-1.11092 1.04727,0 L 565.95721,750.93365 z m -2.09177,0 -1.0473,0 0,-1.11092 1.0473,0 L 563.86544,750.93365 z m 3.87264,-4.16662 -5.00024,0 0,-4.99997 5.00024,0 L 567.73808,746.76703 z m -9.16688,-15.8335 1.11092,0 0,1.11119 -1.11092,0 L 558.5712,730.93353 z m 0,2.15569 1.11092,0 0,1.04728 -1.11092,0 L 558.5712,733.08922 z m 0,2.09151 1.11092,0 0,1.04731 -1.11092,0 L 558.5712,735.18073 z m 0,2.09153 1.11092,0 0,1.04729 -1.11092,0 L 558.5712,737.27226 z m 0,2.09205 1.11092,0 0,1.04759 -1.11092,0 L 558.5712,739.36431 z m 0,2.09154 1.11092,0 0,1.04728 -1.11092,0 L 558.5712,741.45585 z m 0,2.09178 1.11092,0 0,1.04729 -1.11092,0 L 558.5712,743.54763 z m 0,2.09181 1.11092,0 0,1.04755 -1.11092,0 L 558.5712,745.63944 z m 0,2.09178 1.11092,0 0,1.047 -1.11092,0 L 558.5712,747.73122 z m 0,2.09151 1.11092,0 0,1.11092 -1.11092,0 L 558.5712,749.82273 z m 2.15542,-18.8892 1.0473,0 0,1.11119 -1.0473,0 L 560.72662,730.93353 z m 0,18.8892 1.0473,0 0,1.11092 -1.0473,0 L 560.72662,749.82273 z m 7.01146,-9.72261 -5.00024,0 0,-4.99997 5.00024,0 L 567.73808,740.10012 z m -4.91994,-9.16659 1.0473,0 0,1.11119 -1.0473,0 L 562.81814,730.93353 z m 2.09206,0 1.04731,0 0,1.11119 -1.04731,0 L 564.9102,730.93353 z m 2.09153,0 1.04756,0 0,1.11119 -1.04756,0 L 567.00173,730.93353 z m 0,18.8892 1.04756,0 0,1.11092 -1.04756,0 L 567.00173,749.82273 z m 2.09153,-18.8892 1.04753,0 0,1.11119 -1.04753,0 L 569.09326,730.93353 z m 2.09205,0 1.04757,0 0,1.11119 -1.04757,0 L 571.18531,730.93353 z m 2.0918,0 1.047,0 0,1.11119 -1.047,0 L 573.27711,730.93353 z m -3.87237,4.16662 5.00024,0 0,4.99997 -5.00024,0 L 569.40474,735.10015 z m 0,6.66691 5.00024,0 0,4.99997 -5.00024,0 L 569.40474,741.76706 z m 5.96361,-10.83353 1.04757,0 0,1.11119 -1.04757,0 L 575.36835,730.93353 z m 0,18.8892 1.04757,0 0,1.11092 -1.04757,0 L 575.36835,749.82273 z m 2.09208,-18.8892 1.11119,0 0,1.11119 -1.11119,0 L 577.46043,730.93353 z m 0,2.15569 1.11119,0 0,1.04728 -1.11119,0 L 577.46043,733.08922 z m 0,2.09151 1.11119,0 0,1.04731 -1.11119,0 L 577.46043,735.18073 z m 0,2.09153 1.11119,0 0,1.04729 -1.11119,0 L 577.46043,737.27226 z m 0,2.09205 1.11119,0 0,1.04759 -1.11119,0 L 577.46043,739.36431 z m 0,2.09154 1.11119,0 0,1.04728 -1.11119,0 L 577.46043,741.45585 z m 0,2.09178 1.11119,0 0,1.04729 -1.11119,0 L 577.46043,743.54763 z m 0,2.09181 1.11119,0 0,1.04755 -1.11119,0 L 577.46043,745.63944 z m 0,2.09178 1.11119,0 0,1.047 -1.11119,0 L 577.46043,747.73122 z m 0,3.20243 0,-1.11092 1.11119,0 0,1.11092 L 577.46043,750.93365 Z"
       id="Select_All__x2014__Used_in_selection_CABs_to_extend_the_current_selection_to_include_all_data._1_" />
  </g>
</svg>
